<svg xmlns="http://www.w3.org/2000/svg" viewBox="0 0 539.9 63.9" fill="currentColor" aria-label="SYSCOM Logo" role="img">
  <g>
    <g>
      <g>
        <g>
          <path d="M533.7,3.3c1,0.6,1.8,1.4,2.4,2.5c0.6,1,0.9,2.2,0.9,3.4c0,1.2-0.3,2.3-0.9,3.4c-0.6,1-1.4,1.9-2.4,2.5s-2.2,0.9-3.4,0.9s-2.4-0.3-3.4-0.9s-1.8-1.4-2.4-2.5c-0.6-1-0.9-2.2-0.9-3.4c0-1.2,0.3-2.3,0.9-3.4c0.6-1,1.4-1.9,2.4-2.5s2.2-0.9,3.4-0.9C531.6,2.4,532.7,2.7,533.7,3.3z M533,13.8c0.8-0.5,1.5-1.1,1.9-1.9c0.5-0.8,0.7-1.7,0.7-2.6c0-1-0.2-1.8-0.7-2.6c-0.5-0.8-1.1-1.4-1.9-1.9c-0.8-0.5-1.7-0.7-2.7-0.7s-1.9,0.2-2.7,0.7s-1.5,1.1-1.9,1.9c-0.5,0.8-0.7,1.7-0.7,2.6c0,1,0.2,1.8,0.7,2.6c0.5,0.8,1.1,1.4,1.9,1.9c0.8,0.5,1.7,0.7,2.7,0.7S532.2,14.2,533,13.8z M532.9,9.3c-0.2,0.4-0.5,0.6-0.9,0.8l1.4,2.1h-1.7l-1-1.9h-0.2h-1.3v1.9h-1.4V5.7h2.7c0.8,0,1.5,0.2,2,0.6s0.7,0.9,0.7,1.6C533.2,8.5,533.1,8.9,532.9,9.3z M529.2,9.2h1.3c0.4,0,0.7-0.1,1-0.3c0.2-0.2,0.3-0.5,0.3-0.9s-0.1-0.7-0.3-0.8c-0.2-0.2-0.5-0.3-1-0.3h-1.3V9.2z"></path>
        </g>
      </g>
      <g>
        <path d="M178.9,16.2h61.6l9-13.8h-48.1C193.1,2.4,183.8,8.2,178.9,16.2z"></path>
        <path d="M227.4,25.9h-51.6c-0.1,2,0.8,4.5,3.3,5.3c9.2,3,31.7,4.2,36.9,6.8c2.1,1.1,2.1,3.8,1.6,5.1c-0.9,2.5-3.6,4.4-6.1,4.4h-44.3l-9,13.8h55.5c8.9,0,19.1-6.7,23.6-15.6c0.4-0.9,0.8-1.7,1.1-2.6c0.5-1.4,0.9-2.9,1-4.2c0.3-2.4,0-4.6-0.8-6.6C236.8,28.3,232.8,25.9,227.4,25.9z"></path>
        <path d="M23.7,16.2h61.6l9-13.8H46.2C38,2.4,28.6,8.2,23.7,16.2z"></path>
        <path d="M72.3,25.9H20.7c-0.1,2,0.8,4.5,3.3,5.3c9.2,3,31.7,4.2,36.9,6.8c2.1,1.1,2.1,3.8,1.6,5.1c-0.9,2.5-3.6,4.4-6.1,4.4H12L3,61.3h55.5c8.9,0,19.1-6.7,23.6-15.6c0.4-0.9,0.8-1.7,1.1-2.6c0.5-1.4,0.9-2.9,1-4.2c0.3-2.4,0-4.6-0.8-6.6C81.7,28.3,77.6,25.9,72.3,25.9z"></path>
        <polygon points="154.1,2.4 139.2,16.2 147.6,16.2 162.6,16.2 177.5,2.4"></polygon>
        <polygon points="120.5,16.2 130.4,16.2 125.6,2.4 101.1,2.4 105.9,16.2"></polygon>
        <path d="M280.7,2.4c-8.3,0-17.7,5.8-22.6,13.8h24.8H316l9-13.8H280.7z"></path>
        <path d="M269.2,46.1c-0.7-1-0.8-2.4-0.3-3.8l1.3-3.6l4.7-12.8h-2.7H254l-6.6,18.2c-0.3,0.8-0.6,1.7-0.7,2.6c-0.9,4.2-0.2,8,1.9,10.7c2.1,2.6,5.6,4.1,9.7,4.1h45.2l5-13.8h-36.2C271,47.6,269.9,47.1,269.2,46.1z"></path>
        <path d="M376.8,43.2c-0.9,2.5-3.6,4.4-6.1,4.4h-25.3c-1.3,0-2.5-0.6-3.1-1.5c-0.7-1-0.8-2.4-0.3-3.8l1.3-3.6l4.7-12.8h-2.7h-18.1l-6.6,18.2c-0.3,0.8-0.6,1.7-0.7,2.6c-0.9,4.2-0.2,8,1.9,10.7c2.1,2.6,5.6,4.1,9.7,4.1h41.6c8.9,0,19.1-6.7,23.6-15.6c0.4-0.9,0.8-1.7,1.1-2.6l6.3-17.3h-17.2h-3.6l-5,13.6L376.8,43.2z"></path>
        <path d="M395.3,2.4h-41.6c-8.3,0-17.7,5.8-22.6,13.8h24.8h25.3h25.9c0.6-3.8-0.1-7.2-2.1-9.7C402.9,3.9,399.4,2.4,395.3,2.4z"></path>
        <polygon points="463.8,61.4 472,38.7 476.7,25.9 455.8,25.9 450.9,39.6 442.9,61.4"></polygon>
        <polygon points="482.7,61.4 485.4,61.4 503.5,61.4 510.1,43.2 511.8,38.7 516.4,25.9 499.2,25.9 495.6,25.9 490.6,39.6"></polygon>
        <path d="M507.8,2.4h-4.5H487h-23.5h-16.3h-4.5h-18.1l-5,13.8h21.7h16.3h23.5h16.3h22.3c0.6-3.8-0.1-7.2-2.1-9.7C515.4,3.9,511.9,2.4,507.8,2.4z"></path>
        <polygon points="409.5,44.1 403.2,61.4 420.4,61.4 424,61.4 432.3,38.7 436.9,25.9 434.2,25.9 416.1,25.9 411.1,39.6"></polygon>
      </g>
    </g>
    <polygon points="152.2,25.9 109.3,25.9 115.1,42.1 108.1,61.4 128.1,61.4 135.3,41.5"></polygon>
  </g>
</svg>
